<svg width="40" height="40" viewBox="0 0 40 40" fill="none" xmlns="http://www.w3.org/2000/svg">
<path d="M20 0C31.0457 0 40 8.9543 40 20C40 31.0457 31.0457 40 20 40C8.9543 40 0 31.0457 0 20C3.2215e-07 8.9543 8.9543 3.22129e-07 20 0Z" fill="#B58320"/>
<g clip-path="url(#clip0_36_647)">
<path d="M20.4443 10.4446C19.0655 10.4446 17.9443 11.5658 17.9443 12.9446C17.9443 14.3234 19.0655 15.4446 20.4443 15.4446C21.8231 15.4446 22.9443 14.3234 22.9443 12.9446C22.9443 11.5658 21.8231 10.4446 20.4443 10.4446Z" fill="white"/>
<path d="M27.3193 21.6946C25.9405 21.6946 24.8193 22.8158 24.8193 24.1946C24.8193 25.5734 25.9405 26.6946 27.3193 26.6946C28.6981 26.6946 29.8193 25.5734 29.8193 24.1946C29.8193 22.8158 28.6981 21.6946 27.3193 21.6946Z" fill="white"/>
<path d="M30.1824 26.5874C29.494 27.4097 28.4732 27.9445 27.3193 27.9445C26.1655 27.9445 25.1447 27.4097 24.4563 26.5874C23.911 27.1935 23.5693 27.9867 23.5693 28.8643V29.8195C23.5693 30.165 23.8489 30.4445 24.1943 30.4445H30.486C30.8315 30.4445 31.111 30.165 31.111 29.8195V28.8643C31.111 27.9867 30.7277 27.1935 30.1824 26.5874Z" fill="white"/>
<path d="M13.5693 21.6946C12.1905 21.6946 11.0693 22.8158 11.0693 24.1946C11.0693 25.5734 12.1905 26.6946 13.5693 26.6946C14.9481 26.6946 16.0693 25.5734 16.0693 24.1946C16.0693 22.8158 14.9481 21.6946 13.5693 21.6946Z" fill="white"/>
<path d="M16.4326 26.5874C15.7442 27.4097 14.7234 27.9445 13.5695 27.9445C12.4156 27.9445 11.3948 27.4097 10.7064 26.5874C10.1611 27.1935 9.77783 27.9867 9.77783 28.8643V29.8195C9.77783 30.165 10.0574 30.4445 10.4028 30.4445H16.6945C17.04 30.4445 17.3195 30.165 17.3195 29.8195V28.8643C17.3195 27.9867 16.9779 27.1935 16.4326 26.5874Z" fill="white"/>
<path d="M23.5693 19.1945C23.9148 19.1945 24.1943 18.915 24.1943 18.5695V17.6143C24.1943 16.7367 23.8527 15.9435 23.3074 15.3374C22.619 16.1597 21.5982 16.6945 20.4443 16.6945C19.2905 16.6945 18.2697 16.1597 17.5813 15.3374C17.036 15.9435 16.6943 16.7367 16.6943 17.6143V18.5695C16.6943 18.915 16.9739 19.1945 17.3193 19.1945H19.8193V23.1794L17.2973 24.4127C17.2626 25.004 17.0915 25.5543 16.8132 26.0412L20.4413 24.2669L24.1076 26.1002C23.8148 25.6088 23.6355 25.0482 23.5948 24.4461L21.0693 23.1832V19.1945H23.5693Z" fill="white"/>
</g>
<defs>
<clipPath id="clip0_36_647">
<rect width="21.3333" height="21.3333" fill="white" transform="translate(9.77783 9.77783)"/>
</clipPath>
</defs>
</svg>
