<svg width="40" height="40" viewBox="0 0 40 40" fill="none" xmlns="http://www.w3.org/2000/svg">
<path d="M20 0C31.0457 0 40 8.9543 40 20C40 31.0457 31.0457 40 20 40C8.9543 40 0 31.0457 0 20C3.2215e-07 8.9543 8.9543 3.22129e-07 20 0Z" fill="#B58320"/>
<g clip-path="url(#clip0_36_628)">
<path d="M11.4058 11.0254H17.8293C18.0322 11.0254 18.1674 11.1606 18.1674 11.3635V14.4737C18.1674 14.7443 18.2687 15.0146 18.4716 15.1837L19.0464 15.7585H11.4058C11.2029 15.7585 11.0677 15.6233 11.0677 15.4204V11.3635C11.0677 11.1606 11.2029 11.0254 11.4058 11.0254ZM13.0962 15.0823H17.4912V14.4062H13.0962V15.0823ZM11.7439 13.73H17.4912V13.0539H11.7439V13.73ZM11.7439 12.3777H17.4912V11.7015H11.7439V12.3777Z" fill="white"/>
<path d="M24.5232 13.9667C24.1176 14.2034 23.6443 14.2372 23.2047 14.0682L21.9876 13.5611C22.7991 12.1411 24.6247 11.634 26.0784 12.4453C26.8222 12.8849 27.3632 13.5949 27.5322 14.4401V14.4738L26.687 14.0005C26.0109 13.5611 25.1994 13.5949 24.5232 13.9667Z" fill="white"/>
<path d="M27.6333 22.5201H26.9572V26.577H24.9287V21.1678L25.9768 21.9453L27.4643 20.4578L28.1743 20.6945C28.8505 20.931 29.3237 21.5734 29.3237 22.2834V26.577H27.6333V22.5201Z" fill="white"/>
<path d="M26.9909 17.7869H25.9429C25.9429 17.6854 26.0106 17.584 26.0781 17.5163L26.4838 17.2459C26.7542 17.0431 26.9233 16.7388 26.9233 16.4007V14.8794L27.6671 15.3188L27.9713 16.5698C28.0727 17.1107 27.7346 17.6517 27.1938 17.7869H26.9909Z" fill="white"/>
<path d="M22.224 16.4008C22.224 16.7389 22.3931 17.0431 22.6635 17.246L23.0692 17.5164C23.1706 17.5841 23.2383 17.6854 23.2383 17.7869H22.1902C21.6156 17.7869 21.176 17.3473 21.176 16.7727C21.176 16.705 21.176 16.6375 21.2098 16.5698L21.6492 14.4062C21.6831 14.3385 21.6831 14.2371 21.7169 14.1694L22.224 14.3723V16.4008Z" fill="white"/>
<path d="M23.9146 17.8209C23.9146 17.4828 23.7455 17.1784 23.4751 16.9757L23.0694 16.7051C22.968 16.6376 22.9342 16.5361 22.9342 16.4347V14.7105H22.968C23.6103 14.9809 24.3203 14.9472 24.8949 14.5753C25.3345 14.3047 25.8417 14.3047 26.3149 14.5414V16.4347C26.3149 16.5361 26.2473 16.6376 26.1797 16.7051L25.774 16.9757C25.5036 17.1784 25.3345 17.4828 25.3345 17.8209V19.1393H23.9822V17.8209H23.9146Z" fill="white"/>
<path d="M26.7544 20.221L25.9092 21.0662L24.9288 20.3225V19.8154H25.5373L26.7544 20.221Z" fill="white"/>
<path d="M22.4269 20.221L23.644 19.8154H24.2524V20.3225L23.272 21.0662L22.4269 20.221Z" fill="white"/>
<path d="M19.8574 24.5824V22.2834C19.8574 21.5397 20.3307 20.8972 21.0069 20.6945L21.7169 20.4578L23.2044 21.9453L24.2524 21.1678V26.577H22.224V23.8724H21.5478V26.577H20.8717V26.5432C20.8717 25.7657 20.4997 25.0218 19.8574 24.5824ZM21.5478 23.1962H23.5763V22.5201H21.5478V23.1962Z" fill="white"/>
<path d="M14.516 23.1623C13.8398 22.7565 13.4341 22.0467 13.4341 21.269V17.7869H16.8149C17.3897 17.7869 17.8291 18.2263 17.8291 18.8011V21.269C17.8291 22.4861 16.8487 23.4665 15.6316 23.4665C15.2258 23.4665 14.8541 23.3652 14.516 23.1623Z" fill="white"/>
<path d="M12.0479 24.988L14.4483 23.9062C15.1921 24.2443 16.0373 24.2443 16.7471 23.9062L19.1475 24.988C19.7562 25.2586 20.1279 25.867 20.1279 26.5432V29.9578H10.9998V26.5432C11.0675 25.867 11.4394 25.2586 12.0479 24.988Z" fill="white"/>
<path d="M30 29.9578H20.8719V27.2532H30V29.9578ZM26.2811 28.2674H22.9004V28.9436H26.2811V28.2674Z" fill="white"/>
</g>
<defs>
<clipPath id="clip0_36_628">
<rect width="19" height="19" fill="white" transform="matrix(-1 0 0 1 30 11)"/>
</clipPath>
</defs>
</svg>
