<svg width="40" height="40" viewBox="0 0 40 40" fill="none" xmlns="http://www.w3.org/2000/svg">
<path d="M20 0C31.0457 0 40 8.9543 40 20C40 31.0457 31.0457 40 20 40C8.9543 40 0 31.0457 0 20C3.2215e-07 8.9543 8.9543 3.22129e-07 20 0Z" fill="#B58320"/>
<path fill-rule="evenodd" clip-rule="evenodd" d="M12.956 10.9893H13.6653C13.8624 10.9893 14.0231 11.15 14.0231 11.347V13.1592C14.0231 13.3562 13.8624 13.5169 13.6653 13.5169H12.956C12.759 13.5169 12.5983 13.3563 12.5983 13.1592V11.347C12.5983 11.15 12.759 10.9893 12.956 10.9893ZM24.8887 10.9893H25.5981C25.7951 10.9893 25.9558 11.15 25.9558 11.347V13.1592C25.9558 13.3562 25.7951 13.5169 25.5981 13.5169H24.8887C24.6917 13.5169 24.531 13.3563 24.531 13.1592V11.347C24.531 11.15 24.6917 10.9893 24.8887 10.9893ZM20.9111 10.9893H21.6205C21.8175 10.9893 21.9783 11.15 21.9783 11.347V13.1592C21.9783 13.3562 21.8175 13.5169 21.6205 13.5169H20.9111C20.7141 13.5169 20.5534 13.3563 20.5534 13.1592V11.347C20.5534 11.15 20.7141 10.9893 20.9111 10.9893ZM16.9336 10.9893H17.6429C17.8399 10.9893 18.0006 11.15 18.0006 11.347V13.1592C18.0006 13.3562 17.8399 13.5169 17.6429 13.5169H16.9336C16.7365 13.5169 16.5759 13.3563 16.5759 13.1592V11.347C16.5759 11.15 16.7365 10.9893 16.9336 10.9893ZM22.0283 27.1H11.8362C11.0481 27.1 10.4053 26.4573 10.4053 25.6691V15.6402H28.1488V21.5926C27.6407 21.4005 27.0906 21.2953 26.5166 21.2953C23.9626 21.2953 21.8791 23.3788 21.8791 25.9328C21.8791 26.3357 21.931 26.7269 22.0283 27.1ZM12.6932 17.4353C12.6006 17.4353 12.5256 17.5103 12.5256 17.6028V18.8563C12.5256 18.9489 12.6006 19.0239 12.6932 19.0239H13.9467C14.0392 19.0239 14.1142 18.9489 14.1142 18.8563V17.6028C14.1142 17.5103 14.0392 17.4353 13.9467 17.4353H12.6932ZM24.6074 17.4353C24.5149 17.4353 24.4399 17.5103 24.4399 17.6028V18.8563C24.4399 18.9489 24.5149 19.0239 24.6074 19.0239H25.8609C25.9535 19.0239 26.0285 18.9489 26.0285 18.8563V17.6028C26.0285 17.5103 25.9535 17.4353 25.8609 17.4353H24.6074ZM15.6717 20.4139C15.5792 20.4139 15.5042 20.4889 15.5042 20.5814V21.8349C15.5042 21.9274 15.5792 22.0024 15.6717 22.0024H16.9252C17.0177 22.0024 17.0927 21.9274 17.0927 21.8349V20.5814C17.0927 20.4889 17.0177 20.4139 16.9252 20.4139H15.6717ZM18.6503 17.4353C18.5578 17.4353 18.4828 17.5103 18.4828 17.6028V18.8563C18.4828 18.9489 18.5578 19.0239 18.6503 19.0239H19.9038C19.9963 19.0239 20.0713 18.9489 20.0713 18.8563V17.6028C20.0713 17.5103 19.9963 17.4353 19.9038 17.4353H18.6503ZM15.6717 17.4353C15.5792 17.4353 15.5042 17.5103 15.5042 17.6028V18.8563C15.5042 18.9489 15.5792 19.0239 15.6717 19.0239H16.9252C17.0177 19.0239 17.0927 18.9489 17.0927 18.8563V17.6028C17.0927 17.5103 17.0177 17.4353 16.9252 17.4353H15.6717ZM12.6932 23.3924C12.6006 23.3924 12.5256 23.4674 12.5256 23.5599V24.8134C12.5256 24.906 12.6006 24.981 12.6932 24.981H13.9467C14.0392 24.981 14.1142 24.906 14.1142 24.8134V23.5599C14.1142 23.4674 14.0392 23.3924 13.9467 23.3924H12.6932ZM15.6717 23.3924C15.5792 23.3924 15.5042 23.4674 15.5042 23.5599V24.8134C15.5042 24.906 15.5792 24.981 15.6717 24.981H16.9252C17.0177 24.981 17.0927 24.906 17.0927 24.8134V23.5599C17.0927 23.4674 17.0177 23.3924 16.9252 23.3924H15.6717ZM18.6503 23.3924C18.5578 23.3924 18.4828 23.4674 18.4828 23.5599V24.8134C18.4828 24.906 18.5578 24.981 18.6503 24.981H19.9038C19.9963 24.981 20.0713 24.906 20.0713 24.8134V23.5599C20.0713 23.4674 19.9963 23.3924 19.9038 23.3924H18.6503ZM12.6932 20.4139C12.6006 20.4139 12.5256 20.4889 12.5256 20.5814V21.8349C12.5256 21.9274 12.6006 22.0024 12.6932 22.0024H13.9467C14.0392 22.0024 14.1142 21.9274 14.1142 21.8349V20.5814C14.1142 20.4889 14.0392 20.4139 13.9467 20.4139H12.6932ZM21.6288 17.4353C21.5363 17.4353 21.4613 17.5103 21.4613 17.6028V18.8563C21.4613 18.9489 21.5363 19.0239 21.6288 19.0239H22.8823C22.9749 19.0239 23.0499 18.9489 23.0499 18.8563V17.6028C23.0499 17.5103 22.9749 17.4353 22.8823 17.4353H21.6288ZM21.6288 20.4139C21.5363 20.4139 21.4613 20.4889 21.4613 20.5814V21.8349C21.4613 21.9274 21.5363 22.0024 21.6288 22.0024H22.8823C22.9749 22.0024 23.0499 21.9274 23.0499 21.8349V20.5814C23.0499 20.4889 22.9749 20.4139 22.8823 20.4139H21.6288ZM18.6503 20.4139C18.5578 20.4139 18.4828 20.4889 18.4828 20.5814V21.8349C18.4828 21.9274 18.5578 22.0024 18.6503 22.0024H19.9038C19.9963 22.0024 20.0713 21.9274 20.0713 21.8349V20.5814C20.0713 20.4889 19.9963 20.4139 19.9038 20.4139H18.6503ZM26.625 12.1828H26.7179C27.506 12.1828 28.1488 12.8256 28.1488 13.6137V14.971H10.4053V13.6137C10.4053 12.8256 11.0481 12.1828 11.8362 12.1828H11.929V13.1592C11.929 13.7249 12.3904 14.1862 12.956 14.1862H13.6653C14.231 14.1862 14.6924 13.7248 14.6924 13.1592V12.1828H15.9066V13.1592C15.9066 13.7249 16.3679 14.1862 16.9336 14.1862H17.6429C18.2085 14.1862 18.6699 13.7248 18.6699 13.1592V12.1828H19.8841V13.1592C19.8841 13.7249 20.3455 14.1862 20.9111 14.1862H21.6205C22.186 14.1862 22.6476 13.7248 22.6476 13.1592V12.1828H23.8618V13.1592C23.8618 13.7249 24.3231 14.1862 24.8887 14.1862H25.5981C26.1637 14.1862 26.625 13.7248 26.625 13.1592V12.1828ZM26.5166 29.8999C24.3313 29.8999 22.5484 28.1182 22.5484 25.9328C22.5484 23.7474 24.3313 21.9645 26.5166 21.9645C28.702 21.9645 30.4837 23.7474 30.4837 25.9328C30.4837 28.1182 28.702 29.8999 26.5166 29.8999ZM25.9958 26.282L25.109 25.3953C24.8794 25.1656 24.5064 25.1656 24.2768 25.3953C24.0471 25.6262 24.0471 25.9979 24.2768 26.2276L25.5802 27.5322C25.8099 27.7618 26.1828 27.7618 26.4125 27.5322C27.1985 26.7461 27.9751 25.9517 28.7577 25.1621C28.9861 24.9313 28.9849 24.5595 28.7553 24.331C28.5256 24.1026 28.1527 24.1037 27.9242 24.3334L25.9958 26.282Z" fill="white"/>
</svg>
