<svg width="40" height="40" viewBox="0 0 40 40" fill="none" xmlns="http://www.w3.org/2000/svg">
<path d="M20 0C31.0457 0 40 8.9543 40 20C40 31.0457 31.0457 40 20 40C8.9543 40 0 31.0457 0 20C3.2215e-07 8.9543 8.9543 3.22129e-07 20 0Z" fill="#B58320"/>
<g clip-path="url(#clip0_36_636)">
<path d="M27.8485 24.5611L25.2856 25.8236C25.1581 25.4786 24.9322 25.1728 24.6322 24.9494L26.2789 24.1382C26.8385 23.8632 27.5118 24.0557 27.8485 24.5611ZM30.6476 25.309C30.3501 24.7044 29.6047 24.4503 28.9989 24.749L25.4026 26.5182C25.4001 26.6694 25.3801 26.8228 25.3389 26.9753C25.0685 27.9853 24.0139 28.5932 23.0039 28.3228L19.4135 27.3615C19.2564 27.319 19.1618 27.1561 19.2043 26.999L19.2268 26.9173C19.2681 26.7603 19.431 26.6657 19.5881 26.7082L23.1785 27.6707C23.8035 27.8373 24.4518 27.4865 24.6597 26.884C24.8914 26.2132 24.506 25.4773 23.8151 25.2919C21.6122 24.7015 19.4097 24.1107 17.2068 23.5215C16.2689 23.2698 15.3689 23.4011 14.5422 23.909L13.5314 24.5303L14.9464 29.2557L20.4881 30.7415C21.3185 30.9636 22.1039 30.8869 22.8751 30.5065C25.2789 29.3244 27.6835 28.1407 30.0868 26.9573C30.6939 26.659 30.9464 25.9173 30.6476 25.309ZM12.6501 23.9482C12.5993 23.7782 12.4197 23.6803 12.2497 23.7307L10.346 24.3011C10.176 24.3519 10.0789 24.5328 10.1297 24.7028L11.9747 30.8598C12.0256 31.0298 12.2064 31.1278 12.3751 31.0761L14.2789 30.5069C14.4489 30.4561 14.546 30.2753 14.4951 30.1053L12.6501 23.9482ZM30.7731 22.6161V20.6332C30.2272 20.6332 29.7314 20.8553 29.3722 21.2144C29.0131 21.5736 28.791 22.0694 28.791 22.6165H30.7731V22.6161ZM30.7731 17.9861V16.0032H28.791C28.791 16.5498 29.0131 17.0461 29.3722 17.404C29.731 17.764 30.2272 17.9861 30.7731 17.9861ZM21.3856 16.4398C21.3856 16.2911 21.3747 16.1457 21.3547 16.0028H28.1156C28.1156 16.7361 28.4131 17.4011 28.8939 17.8819C29.3747 18.3615 30.0385 18.659 30.7731 18.659V19.9594C30.0385 19.9594 29.3747 20.2557 28.8939 20.7365C28.4131 21.2173 28.1156 21.8823 28.1156 22.6157H20.926C20.926 21.8823 20.6285 21.2173 20.1476 20.7365C19.6668 20.2557 19.0018 19.9594 18.2672 19.9594V19.5565C19.9893 19.5569 21.3856 18.1619 21.3856 16.4398ZM22.2676 19.309C22.2676 20.5503 23.2797 21.5615 24.5201 21.5615C25.7614 21.5615 26.7726 20.5507 26.7726 19.309C26.7726 18.069 25.7618 17.0565 24.5201 17.0565C23.2801 17.0565 22.2676 18.0686 22.2676 19.309ZM18.2672 20.6328V22.6157H20.2493C20.2493 22.069 20.0285 21.5728 19.6693 21.2136C19.3101 20.8548 18.8143 20.6328 18.2672 20.6328ZM24.5201 19.6478C24.5626 19.6478 24.6006 19.6644 24.6276 19.6928C24.656 19.7198 24.6739 19.759 24.6739 19.8003C24.6739 19.8415 24.656 19.8807 24.6276 19.9078C24.6006 19.9361 24.5626 19.9528 24.5201 19.9528C24.4872 19.9528 24.4576 19.9432 24.4326 19.9257C24.4056 19.9069 24.3856 19.8807 24.3747 19.8511C24.3122 19.6761 24.1197 19.5853 23.9447 19.6478C23.7697 19.7103 23.6789 19.9028 23.7414 20.0778C23.7993 20.2407 23.9068 20.3803 24.0439 20.4769C24.0876 20.5078 24.1335 20.5336 24.1822 20.5561V20.6069C24.1822 20.7936 24.3335 20.9448 24.5201 20.9448C24.7068 20.9448 24.8581 20.7936 24.8581 20.6069V20.5561C24.9514 20.5148 25.0351 20.4569 25.106 20.3861C25.256 20.2361 25.3493 20.0282 25.3493 19.8003C25.3493 19.5723 25.256 19.3644 25.106 19.2144C24.956 19.0644 24.7493 18.9711 24.5201 18.9711C24.4789 18.9711 24.441 18.9544 24.4126 18.9261C24.3856 18.8978 24.3676 18.8598 24.3676 18.8186C24.3676 18.7773 24.3856 18.7382 24.4126 18.7111C24.441 18.6828 24.4789 18.6648 24.5201 18.6648C24.5531 18.6648 24.5839 18.6753 24.6089 18.6932C24.6347 18.7119 24.6551 18.7382 24.6656 18.7678C24.7293 18.9428 24.9218 19.0336 25.0968 18.9711C25.2718 18.9086 25.3626 18.7161 25.3001 18.5398C25.2422 18.3782 25.1347 18.2386 24.9964 18.1407C24.9539 18.1111 24.9076 18.084 24.8581 18.0628V18.0119C24.8581 17.8253 24.7068 17.6728 24.5201 17.6728C24.3335 17.6728 24.1822 17.8253 24.1822 18.0119V18.0615C24.0901 18.104 24.0064 18.1619 23.9356 18.2328C23.7843 18.3828 23.6922 18.5907 23.6922 18.8186C23.6922 19.0465 23.7843 19.2544 23.9356 19.4044C24.0856 19.5544 24.2922 19.6478 24.5201 19.6478ZM15.826 16.4398C15.826 15.0944 16.9231 13.9986 18.2672 13.9986C19.6126 13.9986 20.7097 15.0948 20.7097 16.4398C20.7097 17.7848 19.6126 18.8811 18.2672 18.8811C16.9235 18.8815 15.826 17.7853 15.826 16.4398ZM17.3735 15.8823C17.3735 16.129 17.4739 16.3523 17.6356 16.5153C17.7972 16.6769 18.0218 16.7773 18.2676 16.7773C18.3281 16.7773 18.3822 16.8023 18.4222 16.8423C18.4622 16.8815 18.4872 16.9369 18.4872 16.9969C18.4872 17.0561 18.4622 17.1115 18.4222 17.1507C18.3822 17.1907 18.3276 17.2157 18.2676 17.2157C18.2206 17.2157 18.1781 17.2015 18.1426 17.1757C18.1047 17.1498 18.0751 17.1119 18.0601 17.0694C17.9976 16.8944 17.8051 16.8036 17.6301 16.8661C17.4551 16.9286 17.3643 17.1223 17.4268 17.2973C17.4893 17.4732 17.6051 17.6232 17.7539 17.7286C17.8081 17.7665 17.8672 17.7994 17.9297 17.8253V17.9128C17.9297 18.0994 18.081 18.2507 18.2676 18.2507C18.4543 18.2507 18.6056 18.0994 18.6056 17.9128V17.8253C18.7164 17.779 18.8168 17.7132 18.901 17.629C19.0626 17.4673 19.1631 17.2428 19.1631 16.9961C19.1631 16.7503 19.0626 16.5261 18.901 16.364C18.7381 16.2023 18.5147 16.1019 18.2681 16.1019C18.2089 16.1019 18.1535 16.0769 18.1143 16.0369C18.0743 15.9969 18.0493 15.9423 18.0493 15.8823C18.0493 15.8232 18.0743 15.7678 18.1143 15.7286C18.1535 15.6886 18.2089 15.6636 18.2681 15.6636C18.3151 15.6636 18.3589 15.6778 18.3943 15.7028C18.4322 15.7298 18.4606 15.7665 18.476 15.809C18.5385 15.984 18.731 16.0761 18.9072 16.0123C19.0822 15.9498 19.1731 15.7573 19.1106 15.5823C19.0468 15.4065 18.931 15.2565 18.7822 15.1511C18.7281 15.1132 18.6689 15.0803 18.6064 15.0544V14.9669C18.6064 14.7803 18.4551 14.629 18.2685 14.629C18.0818 14.629 17.9306 14.7803 17.9306 14.9669V15.0544C17.8197 15.0994 17.7201 15.1665 17.6364 15.2507C17.4739 15.4123 17.3735 15.6369 17.3735 15.8823ZM23.6168 13.4353C23.8035 13.4353 23.9547 13.284 23.9547 13.0973V10.1365C23.9547 9.94983 23.8035 9.79858 23.6168 9.79858C23.4289 9.79858 23.2776 9.94983 23.2776 10.1365V13.0973C23.2776 13.284 23.4289 13.4353 23.6168 13.4353ZM21.7597 14.5786C21.9464 14.5786 22.0989 14.4273 22.0989 14.2407V12.2044C22.0989 12.0178 21.9464 11.8665 21.7597 11.8665C21.5731 11.8665 21.4218 12.0178 21.4218 12.2044V14.2407C21.4222 14.4273 21.5735 14.5786 21.7597 14.5786ZM25.4247 13.4353C25.6114 13.4353 25.7626 13.284 25.7626 13.0973V10.1365C25.7626 9.94983 25.6114 9.79858 25.4247 9.79858C25.2381 9.79858 25.0868 9.94983 25.0868 10.1365V13.0973C25.0872 13.284 25.2381 13.4353 25.4247 13.4353ZM27.2806 14.5786C27.4672 14.5786 27.6185 14.4273 27.6185 14.2407V12.2044C27.6185 12.0178 27.4672 11.8665 27.2806 11.8665C27.0939 11.8665 26.9426 12.0178 26.9426 12.2044V14.2407C26.9426 14.4273 27.0939 14.5786 27.2806 14.5786Z" fill="white"/>
</g>
<defs>
<clipPath id="clip0_36_636">
<rect width="21.3333" height="21.3333" fill="white" transform="translate(9.77783 9.77783)"/>
</clipPath>
</defs>
</svg>
