<svg width="40" height="40" viewBox="0 0 40 40" fill="none" xmlns="http://www.w3.org/2000/svg">
<path d="M20 0C31.0457 0 40 8.9543 40 20C40 31.0457 31.0457 40 20 40C8.9543 40 0 31.0457 0 20C3.2215e-07 8.9543 8.9543 3.22129e-07 20 0Z" fill="#B58320"/>
<path fill-rule="evenodd" clip-rule="evenodd" d="M25.9905 27.2761V27.6761C25.9905 27.8082 25.8384 27.889 25.7293 27.8044L24.1672 26.5973C24.083 26.5323 24.083 26.4057 24.1672 26.3407L25.7293 25.1336C25.8384 25.049 25.9905 25.1298 25.9905 25.2619V25.6265C28.7372 25.1836 29.4401 22.6482 29.5272 20.714C30.7768 23.4736 28.963 26.9161 25.9905 27.2761ZM27.9522 15.889V18.6632C28.1555 18.3811 28.3943 18.1482 28.6468 17.9552C28.2459 16.4586 27.8447 14.9623 27.4438 13.4657C26.3376 13.4627 25.7076 13.039 24.6905 12.9427C24.2293 12.899 23.7859 12.9607 23.4476 13.2769C22.5747 14.0932 21.8176 14.8869 20.9759 15.7352C20.5788 16.1357 20.5813 16.7902 20.9818 17.1873C21.3826 17.5852 22.0363 17.5823 22.4338 17.1815C22.8501 16.7623 23.5988 16.0332 24.0647 15.5677C25.4247 16.4757 26.1455 16.2532 27.0697 15.864C27.3413 15.7498 27.8976 15.5523 27.8976 15.5523C27.933 15.6586 27.9522 15.7715 27.9522 15.889ZM12.143 24.5219L13.1818 28.399C13.5751 28.2127 13.9918 28.1611 14.4855 28.2744L16.5597 28.7498C17.0318 28.8582 17.4759 28.8161 17.8955 28.574L23.0822 25.5794C23.5451 25.3123 23.7051 24.7148 23.4376 24.2519C23.1705 23.789 22.573 23.629 22.1105 23.8961L19.1872 25.5836C19.3147 26.5732 18.3843 27.3798 17.4213 27.1177L15.4872 26.5915C15.3097 26.5432 15.2047 26.3602 15.2526 26.1827C15.3009 26.0052 15.4838 25.9002 15.6613 25.9482L17.5955 26.4744C17.9884 26.5815 18.3976 26.3486 18.5059 25.954C18.6609 25.3844 18.3205 24.7894 17.7509 24.6344L14.1301 23.649C13.6497 23.5852 13.213 23.7019 12.8284 23.9965L12.143 24.5219ZM20.3147 15.4915H15.5155C15.2972 15.4915 15.1184 15.6702 15.1184 15.8886V22.1615C15.1184 22.3798 15.2972 22.559 15.5155 22.559H26.888C27.1063 22.559 27.2851 22.3802 27.2851 22.1615V16.4969C26.5626 16.799 25.9443 16.9748 25.168 16.8023C25.2888 17.2894 25.7284 17.6415 26.2422 17.6415C26.4263 17.6415 26.5755 17.7907 26.5755 17.9748V20.0761C26.5755 20.2602 26.4263 20.4094 26.2422 20.4094C25.6309 20.4094 25.1351 20.9048 25.1351 21.5161C25.1351 21.7002 24.9859 21.8494 24.8018 21.8494H17.6013C17.4172 21.8494 17.268 21.7002 17.268 21.5161C17.268 20.9048 16.7726 20.4094 16.1609 20.4094C15.9768 20.4094 15.8276 20.2602 15.8276 20.0761V17.9748C15.8276 17.7907 15.9768 17.6415 16.1609 17.6415C16.7722 17.6415 17.268 17.1461 17.268 16.5348C17.268 16.3507 17.4172 16.2015 17.6013 16.2015H20.0326C20.0705 15.9507 20.1647 15.7073 20.3147 15.4915ZM18.7905 18.6919C18.9747 18.6919 19.1238 18.8411 19.1238 19.0252C19.1238 19.2094 18.9747 19.3586 18.7905 19.3586H18.1226C17.9384 19.3586 17.7893 19.2094 17.7893 19.0252C17.7893 18.8411 17.9384 18.6919 18.1226 18.6919H18.7905ZM24.2809 18.6919C24.4651 18.6919 24.6143 18.8411 24.6143 19.0252C24.6143 19.2094 24.4651 19.3586 24.2809 19.3586H23.613C23.4288 19.3586 23.2797 19.2094 23.2797 19.0252C23.2797 18.8411 23.4288 18.6919 23.613 18.6919H24.2809ZM21.9901 18.1269C22.0555 18.2682 22.0138 18.4407 21.883 18.5357C21.7343 18.6436 21.5259 18.6102 21.418 18.4615C21.358 18.379 21.2722 18.3998 21.148 18.3998C20.9563 18.3998 20.9563 18.6919 21.148 18.6919H21.2551C21.9722 18.6919 22.3426 19.5657 21.8293 20.079C21.7468 20.1615 21.6463 20.2265 21.5347 20.2677V20.2982C21.5347 20.4823 21.3855 20.6315 21.2013 20.6315C21.013 20.6315 20.868 20.4852 20.868 20.2815C20.6984 20.2286 20.5484 20.1219 20.4459 19.9798C20.338 19.8311 20.3713 19.6227 20.5201 19.5148C20.6688 19.4069 20.8772 19.4402 20.9851 19.589C21.0451 19.6715 21.1309 19.6507 21.2551 19.6507C21.4468 19.6507 21.4468 19.3586 21.2551 19.3586H21.148C20.4305 19.3586 20.0605 18.4848 20.5738 17.9715C20.6218 17.9236 20.6759 17.8815 20.7343 17.8465C20.3938 17.6086 20.1588 17.2594 20.0626 16.8673H17.903C17.7676 17.5794 17.2063 18.1407 16.4943 18.2761V19.7732C17.2063 19.9086 17.7676 20.4698 17.903 21.1819H24.5001C24.6355 20.4698 25.1968 19.9086 25.9088 19.7732V18.2761C25.1968 18.1407 24.6355 17.5794 24.5001 16.8673H23.6972C23.4326 17.1273 23.168 17.3877 22.9068 17.6511C22.6493 17.9115 22.3268 18.0698 21.9901 18.1269ZM11.4351 24.4557L12.6843 29.1173C12.7147 29.2311 12.6468 29.349 12.533 29.3794L11.6713 29.6102C11.5576 29.6407 11.4397 29.5727 11.4093 29.459L10.1601 24.7973C10.1297 24.6836 10.1976 24.5657 10.3113 24.5352L11.173 24.3044C11.2868 24.274 11.4047 24.3423 11.4351 24.4557ZM27.9838 12.9057C27.9501 12.7798 28.0255 12.649 28.1513 12.6152L29.1059 12.3594C29.2318 12.3257 29.3626 12.4011 29.3963 12.5273L30.728 17.4965C30.7618 17.6223 30.6863 17.7532 30.5605 17.7869L29.6055 18.0427C29.4797 18.0765 29.3488 18.0011 29.3151 17.8748L27.9838 12.9057ZM16.3947 11.834V11.434C16.3947 11.3019 16.5468 11.2211 16.6559 11.3057L18.218 12.5127C18.3022 12.5777 18.3022 12.7044 18.218 12.7694L16.6559 13.9765C16.5468 14.0611 16.3947 13.9802 16.3947 13.8482V13.4836C13.648 13.9265 12.9451 16.4619 12.858 18.3961C11.6084 15.6365 13.4222 12.1936 16.3947 11.834Z" fill="white"/>
</svg>
