<svg width="22" height="16" viewBox="0 0 22 16" fill="none" xmlns="http://www.w3.org/2000/svg">
<path d="M19.3149 0.958496H1.86118C0.832856 0.958496 0 1.80106 0 2.82975V14.0572C0 15.092 0.838977 15.9285 1.86118 15.9285H19.3149C20.3346 15.9285 21.1761 15.0956 21.1761 14.0572V2.82975C21.1761 1.80289 20.3465 0.958496 19.3149 0.958496ZM19.0542 2.206C18.674 2.58628 12.13 9.13099 11.9041 9.35696C11.5525 9.71042 11.0852 9.90503 10.588 9.90503C10.0909 9.90503 9.62352 9.71037 9.27081 9.35579C9.11885 9.20381 2.64713 2.73136 2.12182 2.206H19.0542ZM1.24078 13.8033V3.08444L6.60254 8.44682L1.24078 13.8033ZM2.12261 14.681L7.48226 9.3266L8.39461 10.2391C8.98051 10.8281 9.75947 11.1525 10.588 11.1525C11.4166 11.1525 12.1955 10.8281 12.7803 10.2402L13.6938 9.3266L19.0534 14.681H2.12261ZM19.9353 13.8033L14.5735 8.44682L19.9353 3.08444V13.8033Z" fill="url(#paint0_linear_558_1288)"/>
<defs>
<linearGradient id="paint0_linear_558_1288" x1="10.588" y1="0.958496" x2="10.588" y2="15.9285" gradientUnits="userSpaceOnUse">
<stop stop-color="#F3AB0B"/>
<stop offset="0.480769" stop-color="#E8E865"/>
<stop offset="1" stop-color="#B58320"/>
</linearGradient>
</defs>
</svg>
