<svg width="22" height="22" viewBox="0 0 22 22" fill="none" xmlns="http://www.w3.org/2000/svg">
<path d="M15.6934 20.75C16.5064 20.75 17.3094 20.5526 18.0967 20.1787L18.4326 20.0078L18.4395 20.0039C18.8984 19.7499 19.2918 19.4889 19.6045 19.2178C19.9092 18.9536 20.1726 18.649 20.3242 18.2959C20.4453 18.0212 20.5484 17.677 20.6387 17.2852C20.7296 16.8902 20.7861 16.5272 20.7861 16.2158C20.7861 16.0801 20.772 15.8945 20.7061 15.7109L20.709 15.71C20.7057 15.7002 20.6998 15.6912 20.6963 15.6816C20.6924 15.6719 20.6907 15.6611 20.6865 15.6514L20.6836 15.6523C20.6154 15.4866 20.5136 15.3649 20.4404 15.291C20.3501 15.1999 20.2461 15.1192 20.1436 15.0479C19.9471 14.9111 19.6935 14.7697 19.3984 14.6211C19.2273 14.5222 18.9903 14.3895 18.6895 14.2266C18.3931 14.066 18.1245 13.9185 17.8848 13.7842C17.6537 13.6547 17.4369 13.5306 17.2354 13.4102C17.1725 13.3653 17.0708 13.2924 16.9385 13.2012C16.7435 13.0668 16.5564 12.9513 16.3838 12.8682C16.1737 12.767 15.9413 12.7041 15.6934 12.7041C15.4332 12.7041 15.2074 12.795 15.0342 12.8936C14.8576 12.994 14.6917 13.1279 14.5371 13.2744C14.2499 13.5468 13.9867 13.843 13.748 14.1621C13.5539 14.4217 13.349 14.6603 13.1348 14.8779C13.0892 14.9243 13.0501 14.9601 13.0176 14.9873C12.9325 14.9551 12.8848 14.935 12.8643 14.9248C12.8382 14.9118 12.7617 14.8686 12.6152 14.7783C12.5111 14.7142 12.4044 14.6503 12.3408 14.6152L12.3418 14.6133C11.2252 13.995 10.2795 13.2945 9.49805 12.5146C8.7166 11.7347 8.01487 10.791 7.39551 9.67676L7.39355 9.67773C7.3583 9.61407 7.29376 9.50716 7.22949 9.40332C7.13921 9.25743 7.09596 9.18112 7.08301 9.15527C7.07283 9.1349 7.05307 9.08796 7.02148 9.00488C7.04858 8.9728 7.08419 8.93446 7.12988 8.88965C7.34799 8.67579 7.58748 8.47112 7.84766 8.27734C8.16721 8.0393 8.46352 7.77681 8.73633 7.49023C8.88321 7.33593 9.01736 7.16966 9.11816 6.99316C9.21696 6.82017 9.30855 6.59454 9.30859 6.33398C9.30859 6.08568 9.24517 5.85266 9.14355 5.64258C9.06017 5.47027 8.94509 5.28335 8.81055 5.08887C8.72159 4.96029 8.6496 4.86097 8.60449 4.79785C8.48275 4.59506 8.35652 4.37729 8.22559 4.14453C8.09102 3.90531 7.94313 3.63761 7.78223 3.3418C7.61903 3.04177 7.48771 2.80453 7.38867 2.63379C7.23975 2.33928 7.09702 2.0858 6.95996 1.88965C6.88851 1.78743 6.80703 1.68376 6.71582 1.59375C6.64149 1.52045 6.51942 1.41927 6.35352 1.35156L6.35547 1.34863C6.34254 1.34311 6.32843 1.34088 6.31543 1.33594C6.30914 1.33369 6.30328 1.32928 6.29688 1.32715L6.2959 1.3291C6.11283 1.26364 5.92764 1.25002 5.79199 1.25C5.48039 1.25 5.1165 1.30568 4.7207 1.39648C4.33334 1.48536 3.9939 1.58733 3.7207 1.70605V1.70508C3.3626 1.85532 3.05384 2.1203 2.78613 2.42773C2.51433 2.73995 2.25272 3.1334 1.99805 3.5918L1.99414 3.59766C1.50865 4.49071 1.25 5.40575 1.25 6.33398C1.25001 6.59656 1.267 6.85468 1.30176 7.10742C1.33748 7.36704 1.39975 7.64654 1.4834 7.94336C1.56119 8.21942 1.62787 8.44191 1.68359 8.59863C1.73307 8.73779 1.82327 8.97991 1.95117 9.32031C2.08148 9.66711 2.15272 9.86062 2.17285 9.9209L2.1748 9.92871L2.17773 9.93555C2.45282 10.7043 2.77588 11.4094 3.14844 12.0479L3.31055 12.3174C4.02285 13.4687 4.9827 14.6403 6.17773 15.833C7.37352 17.0264 8.54803 17.9844 9.70215 18.6953C10.4105 19.1357 11.2061 19.5109 12.085 19.8242L12.0928 19.8271L12.1006 19.8291C12.1611 19.8492 12.3547 19.9207 12.7021 20.0508C13.0433 20.1784 13.2864 20.268 13.4258 20.3174C13.5827 20.3729 13.8056 20.44 14.082 20.5176C14.3792 20.601 14.6591 20.6626 14.9189 20.6982C15.172 20.7329 15.4304 20.75 15.6934 20.75Z" stroke="url(#paint0_linear_558_1285)" stroke-width="1.5"/>
<defs>
<linearGradient id="paint0_linear_558_1285" x1="11.0179" y1="2" x2="11.0179" y2="20" gradientUnits="userSpaceOnUse">
<stop stop-color="#B58320"/>
<stop offset="0.485577" stop-color="#E8E865"/>
<stop offset="1" stop-color="#F3AB0B"/>
</linearGradient>
</defs>
</svg>
