<svg width="27" height="27" viewBox="0 0 27 27" fill="none" xmlns="http://www.w3.org/2000/svg">
<path d="M18.6267 3.96732C18.6267 3.8239 18.5696 3.68636 18.4679 3.58495C18.3662 3.48353 18.2283 3.42656 18.0846 3.42656H15.3738C14.0087 3.35874 12.6723 3.83256 11.6564 4.74449C10.6405 5.65642 10.0278 6.93232 9.95217 8.29343V11.2136H7.24138C7.09759 11.2136 6.95969 11.2705 6.85801 11.3719C6.75634 11.4733 6.69922 11.6109 6.69922 11.7543V14.5663C6.69922 14.7097 6.75634 14.8472 6.85801 14.9487C6.95969 15.0501 7.09759 15.107 7.24138 15.107H9.95217V22.3533C9.95217 22.4967 10.0093 22.6342 10.111 22.7357C10.2126 22.8371 10.3505 22.894 10.4943 22.894H13.7473C13.8911 22.894 14.029 22.8371 14.1306 22.7357C14.2323 22.6342 14.2894 22.4967 14.2894 22.3533V15.107H17.1304C17.2509 15.1088 17.3686 15.0704 17.4648 14.9979C17.5611 14.9254 17.6303 14.823 17.6617 14.7069L18.4424 11.8949C18.464 11.815 18.4668 11.7312 18.4509 11.65C18.4349 11.5688 18.4004 11.4924 18.3501 11.4266C18.2998 11.3608 18.2351 11.3073 18.1609 11.2704C18.0866 11.2335 18.0049 11.214 17.9219 11.2136H14.2894V8.29343C14.3164 8.02573 14.4425 7.77766 14.643 7.59768C14.8435 7.41769 15.104 7.31871 15.3738 7.32006H18.0846C18.2283 7.32006 18.3662 7.26308 18.4679 7.16167C18.5696 7.06026 18.6267 6.92271 18.6267 6.77929V3.96732Z" fill="black"/>
</svg>
