<svg width="17" height="24" viewBox="0 0 17 24" fill="none" xmlns="http://www.w3.org/2000/svg">
<path d="M7.84383 23.4642C7.51791 23.1617 0 16.0951 0 9.15828C0 4.62014 3.7155 0.924805 8.2784 0.924805C12.8413 0.924805 16.5568 4.62014 16.5568 9.15828C16.5568 15.9007 9.03888 23.1401 8.71296 23.4426L8.2784 23.8748L7.84383 23.4642ZM8.30012 2.22141C4.45425 2.22141 1.32541 5.33328 1.32541 9.15828C1.32541 14.5824 6.64879 20.3956 8.30012 22.0595C9.97318 20.3523 15.2966 14.4312 15.2966 9.15828C15.2748 5.35489 12.146 2.22141 8.30012 2.22141ZM8.30012 12.832C6.12732 12.832 4.36734 11.0816 4.36734 8.92057C4.36734 6.75955 6.12732 5.00913 8.30012 5.00913C10.4729 5.00913 12.2329 6.75955 12.2329 8.92057C12.2329 11.0816 10.4729 12.832 8.30012 12.832ZM8.30012 6.30574C6.84434 6.30574 5.67103 7.47269 5.67103 8.92057C5.67103 10.3684 6.84434 11.5354 8.30012 11.5354C9.7559 11.5354 10.9292 10.3684 10.9292 8.92057C10.9292 7.47269 9.73417 6.30574 8.30012 6.30574Z" fill="url(#paint0_linear_558_1292)"/>
<defs>
<linearGradient id="paint0_linear_558_1292" x1="8.27839" y1="0.924805" x2="8.27839" y2="23.8748" gradientUnits="userSpaceOnUse">
<stop stop-color="#F3AB0B"/>
<stop offset="0.466346" stop-color="#E8E865"/>
<stop offset="1" stop-color="#B58320"/>
</linearGradient>
</defs>
</svg>
