<svg width="24" height="25" viewBox="0 0 24 25" fill="none" xmlns="http://www.w3.org/2000/svg">
<path d="M5.01057 10.5212C3.92812 10.5212 3.04248 11.4069 3.04248 12.4893C3.04248 13.5718 3.92812 14.4574 5.01057 14.4574C6.09301 14.4574 6.97865 13.5718 6.97865 12.4893C6.97865 11.4069 6.09301 10.5212 5.01057 10.5212Z" stroke="black" stroke-width="1.47606"/>
<path d="M18.7874 10.5212C17.705 10.5212 16.8193 11.4069 16.8193 12.4893C16.8193 13.5718 17.705 14.4574 18.7874 14.4574C19.8699 14.4574 20.7555 13.5718 20.7555 12.4893C20.7555 11.4069 19.8699 10.5212 18.7874 10.5212Z" stroke="black" stroke-width="1.47606"/>
<path d="M11.8987 10.5212C10.8163 10.5212 9.93066 11.4069 9.93066 12.4893C9.93066 13.5718 10.8163 14.4574 11.8987 14.4574C12.9812 14.4574 13.8668 13.5718 13.8668 12.4893C13.8668 11.4069 12.9812 10.5212 11.8987 10.5212Z" stroke="black" stroke-width="1.47606"/>
</svg>
