<svg width="19" height="20" viewBox="0 0 19 20" fill="none" xmlns="http://www.w3.org/2000/svg">
<path fill-rule="evenodd" clip-rule="evenodd" d="M5.70683 0.954491C6.6972 0.909214 7.01288 0.898926 9.53471 0.898926C12.057 0.898926 12.3722 0.909727 13.362 0.954491C14.3509 0.999254 15.0261 1.15617 15.6167 1.38512C16.2362 1.61774 16.7973 1.98222 17.2611 2.4532C17.7334 2.91576 18.0988 3.4755 18.332 4.09339C18.5615 4.68248 18.7183 5.35595 18.7637 6.3417C18.8091 7.32953 18.8194 7.6444 18.8194 10.1597C18.8194 12.6751 18.8086 12.9899 18.7637 13.9778C18.7188 14.9635 18.5615 15.637 18.332 16.2261C18.0947 16.8348 17.7769 17.3518 17.2611 17.8662C16.7974 18.3373 16.2362 18.7018 15.6167 18.9344C15.0261 19.1633 14.3509 19.3197 13.3626 19.365C12.3722 19.4103 12.0565 19.4205 9.53471 19.4205C7.01288 19.4205 6.6972 19.4098 5.70683 19.365C4.71853 19.3202 4.04332 19.1633 3.45271 18.9344C2.84249 18.6977 2.3241 18.3807 1.80829 17.8662C1.33601 17.4037 0.970561 16.8439 0.737447 16.2261C0.507912 15.637 0.351102 14.9635 0.305708 13.9778C0.260314 12.9899 0.25 12.6756 0.25 10.1597C0.25 7.64388 0.260829 7.32953 0.305708 6.34223C0.350587 5.35595 0.507912 4.68248 0.737447 4.09339C0.970671 3.47554 1.33609 2.91583 1.80829 2.4532C2.27203 1.98214 2.83322 1.61763 3.45271 1.38512C4.04332 1.15617 4.71853 0.999768 5.70683 0.954491ZM13.2867 2.62144C12.3077 2.57719 12.0137 2.56741 9.53471 2.56741C7.05569 2.56741 6.76168 2.57719 5.78266 2.62144C4.8774 2.6626 4.38582 2.81334 4.05879 2.94042C3.62551 3.10814 3.31601 3.30879 2.99105 3.63292C2.66661 3.95705 2.46492 4.26574 2.29676 4.69791C2.16935 5.0241 2.01822 5.51441 1.97696 6.41734C1.93259 7.39384 1.92279 7.6871 1.92279 10.1597C1.92279 12.6324 1.93259 12.9256 1.97696 13.9021C2.01822 14.805 2.16935 15.2954 2.29676 15.6216C2.4455 16.0238 2.68275 16.3877 2.99105 16.6866C3.29061 16.994 3.65547 17.2307 4.05879 17.379C4.38582 17.5062 4.8774 17.6569 5.78266 17.698C6.76168 17.7423 7.05518 17.7521 9.53471 17.7521C12.0142 17.7521 12.3077 17.7423 13.2867 17.698C14.192 17.6569 14.6836 17.5062 15.0107 17.379C15.4439 17.2113 15.7534 17.0107 16.0784 16.6866C16.3867 16.3878 16.6239 16.0238 16.7726 15.6216C16.9001 15.2954 17.0512 14.805 17.0925 13.9021C17.1369 12.9256 17.1466 12.6324 17.1466 10.1597C17.1466 7.6871 17.1369 7.39384 17.0925 6.41734C17.0512 5.51441 16.9001 5.0241 16.7726 4.69791C16.6045 4.26574 16.4034 3.95705 16.0784 3.63292C15.7534 3.30931 15.4439 3.10814 15.0107 2.94042C14.6836 2.81334 14.192 2.6626 13.2867 2.62144ZM8.34922 13.0145C8.72508 13.1698 9.12787 13.2497 9.53471 13.2497C10.3564 13.2497 11.1443 12.9242 11.7253 12.3447C12.3064 11.7652 12.6328 10.9792 12.6328 10.1597C12.6328 9.34024 12.3064 8.55425 11.7253 7.97476C11.1443 7.39527 10.3564 7.06971 9.53471 7.06971C9.12787 7.06971 8.72508 7.14963 8.34922 7.30492C7.97327 7.46021 7.63179 7.68781 7.34412 7.97476C7.05644 8.26169 6.82824 8.60232 6.67255 8.97721C6.51687 9.35211 6.43674 9.75394 6.43674 10.1597C6.43674 10.5655 6.51687 10.9674 6.67255 11.3423C6.82824 11.7171 7.05644 12.0578 7.34412 12.3447C7.63179 12.6316 7.97327 12.8593 8.34922 13.0145ZM6.16018 6.79386C7.05517 5.90118 8.26903 5.39967 9.53471 5.39967C10.8005 5.39967 12.0143 5.90118 12.9093 6.79386C13.8042 7.68654 14.307 8.89732 14.307 10.1597C14.307 11.4222 13.8042 12.6329 12.9093 13.5256C12.0143 14.4183 10.8005 14.9198 9.53471 14.9198C8.26903 14.9198 7.05517 14.4183 6.16018 13.5256C5.26519 12.6329 4.76239 11.4222 4.76239 10.1597C4.76239 8.89732 5.26519 7.68654 6.16018 6.79386ZM15.3653 6.10887C15.5768 5.89785 15.6956 5.61166 15.6956 5.31324C15.6956 5.01482 15.5768 4.72862 15.3653 4.51761C15.1536 4.3066 14.8667 4.18805 14.5675 4.18805C14.2684 4.18805 13.9814 4.3066 13.7699 4.51761C13.5583 4.72862 13.4394 5.01482 13.4394 5.31324C13.4394 5.61166 13.5583 5.89785 13.7699 6.10887C13.9814 6.31988 14.2684 6.43843 14.5675 6.43843C14.8667 6.43843 15.1536 6.31988 15.3653 6.10887Z" fill="black"/>
</svg>
