<svg width="21" height="22" viewBox="0 0 21 22" fill="none" xmlns="http://www.w3.org/2000/svg">
<path d="M18.7558 18.9724V12.9825C18.7558 10.0386 18.1204 7.78979 14.677 7.78979C13.0168 7.78979 11.91 8.68931 11.4591 9.54794H11.4181V8.05556H8.15918V18.9724H11.5616V13.5549C11.5616 12.1238 11.828 10.7541 13.5907 10.7541C15.3329 10.7541 15.3534 12.3692 15.3534 13.6367V18.952H18.7558V18.9724Z" fill="black"/>
<path d="M2.625 8.05493H6.02739V18.9718H2.625V8.05493Z" fill="black"/>
<path d="M4.32605 2.61694C3.23974 2.61694 2.3584 3.49602 2.3584 4.57953C2.3584 5.66304 3.23974 6.56255 4.32605 6.56255C5.41235 6.56255 6.29369 5.66304 6.29369 4.57953C6.29369 3.49602 5.41235 2.61694 4.32605 2.61694Z" fill="black"/>
</svg>
